<svg id="visual" viewBox="0 0 900 600" width="900" height="600" xmlns="http://www.w3.org/2000/svg" xmlns:xlink="http://www.w3.org/1999/xlink" version="1.1"><path d="M0 133L82 127L164 61L245 127L327 91L409 73L491 79L573 157L655 145L736 85L818 67L900 133L900 0L818 0L736 0L655 0L573 0L491 0L409 0L327 0L245 0L164 0L82 0L0 0Z" fill="#00cc8e"></path><path d="M0 253L82 217L164 103L245 169L327 205L409 145L491 157L573 247L655 265L736 175L818 121L900 199L900 131L818 65L736 83L655 143L573 155L491 77L409 71L327 89L245 125L164 59L82 125L0 131Z" fill="#00b98a"></path><path d="M0 379L82 301L164 271L245 373L327 355L409 343L491 385L573 409L655 439L736 319L818 337L900 337L900 197L818 119L736 173L655 263L573 245L491 155L409 143L327 203L245 167L164 101L82 215L0 251Z" fill="#00a784"></path><path d="M0 445L82 343L164 307L245 409L327 397L409 445L491 421L573 487L655 487L736 391L818 415L900 385L900 335L818 335L736 317L655 437L573 407L491 383L409 341L327 353L245 371L164 269L82 299L0 377Z" fill="#00957c"></path><path d="M0 601L82 601L164 601L245 601L327 601L409 601L491 601L573 601L655 601L736 601L818 601L900 601L900 383L818 413L736 389L655 485L573 485L491 419L409 443L327 395L245 407L164 305L82 341L0 443Z" fill="#038373"></path></svg>